<svg width="54" height="47" viewBox="0 0 54 47" fill="none" xmlns="http://www.w3.org/2000/svg">
<path d="M9.77098 14.7432L11.2491 13.4321C12.8977 11.9974 15.6265 11.9974 17.3319 13.5311L17.3888 13.6053C18.7816 14.8421 20.6292 15.4358 22.6474 15.6089C25.4046 15.8316 28.0765 17.1179 29.8388 19.4432C31.7717 22.1147 31.7433 25.6768 29.7251 28.3237C28.9639 29.3712 27.9403 30.2554 26.7309 30.9099C25.5214 31.5645 24.1575 31.9724 22.7413 32.1033C21.325 32.2342 19.8931 32.0845 18.5527 31.6656C17.2123 31.2467 15.9981 30.5693 15.0011 29.6842C13.4093 28.3237 12.4998 26.5674 12.2724 24.7368C12.045 22.9311 11.2206 21.2242 9.77098 19.9626C8.12235 18.5526 8.12235 16.1779 9.77098 14.7432ZM21.7094 34.6316C18.3837 34.6316 15.2854 33.5184 12.983 31.4653C10.9932 29.6842 9.74256 27.4579 9.42989 25.0337C9.34461 24.2916 9.08879 23.3268 8.4066 22.4363C6.70112 24.4895 5.67783 26.9632 5.67783 29.6842C5.67783 33.7411 7.9518 37.3279 11.448 39.5789H48.3148V37.1053C48.3148 28.2 41.5214 20.6553 32.2265 18.1816C34.7563 21.6447 34.6994 26.2705 32.1128 29.6842C29.8388 32.7763 25.9162 34.6316 21.7094 34.6316ZM36.3196 13.7537H39.9296C42.4025 13.7537 44.5628 15.2626 44.5628 17.9589V19.7895H48.1159V17.3158C48.1159 13.6053 44.3354 10.7853 39.9296 10.7853H36.3196C33.9604 10.7853 31.9422 8.75684 31.9422 6.67895C31.9422 4.60105 33.9604 3.06737 36.3196 3.06737V0C31.9422 0 28.4176 3.06737 28.4176 6.87684C28.4176 10.6863 31.9422 13.7537 36.3196 13.7537ZM7.09906 13.7289C7.26961 13.4816 7.49701 13.2342 7.75283 12.9868L9.23092 11.7005C9.48674 11.4779 9.77098 11.3047 10.0552 11.1316L6.04735 7.59421C6.4453 6.92632 6.30317 6.06053 5.67783 5.49158C5.27078 5.14676 4.72516 4.95381 4.15711 4.95381C3.58906 4.95381 3.04343 5.14676 2.63639 5.49158C2.23844 5.83789 2.03947 6.25842 2.01105 6.70368C1.4994 6.72842 1.01618 6.90158 0.618237 7.24789C-0.206079 7.96526 -0.206079 9.15263 0.618237 9.89474C1.272 10.4389 2.23844 10.5626 3.03433 10.2163L7.09906 13.7289ZM46.5809 5.91211C48.0306 4.65053 48.9402 2.94368 48.9402 1.03895H45.3871C45.3871 3.09211 43.3974 4.82368 41.0381 4.82368V7.89105C46.3251 7.89105 50.4751 11.6511 50.4751 16.2521V22.2632H53.9998V16.2521C54.014 14.0943 53.3244 11.9773 52.0112 10.147C50.698 8.31671 48.815 6.84821 46.5809 5.91211ZM8.5203 47H48.3148C51.47 47 53.9998 44.7984 53.9998 42.0526H2.83536C2.83536 43.3648 3.43431 44.6231 4.50044 45.5509C5.56657 46.4788 7.01256 47 8.5203 47Z" fill="black"/>
</svg>
