<svg width="54" height="47" viewBox="0 0 54 47" fill="none" xmlns="http://www.w3.org/2000/svg">
<path d="M28.125 2.9375C24.1425 2.9375 20.6325 5.22875 19.5075 8.55792C18.315 8.08792 17.055 7.83333 15.75 7.83333C13.3631 7.83333 11.0739 8.65863 9.38604 10.1277C7.69821 11.5967 6.75 13.5891 6.75 15.6667C6.75533 17.4014 7.42049 19.0858 8.64162 20.4569C9.86275 21.8279 11.5711 22.8085 13.5 23.2454V37.2083H42.75V23.2454C46.71 22.3446 49.5 19.2308 49.5 15.6667C49.5 13.5891 48.5518 11.5967 46.864 10.1277C45.1761 8.65863 42.8869 7.83333 40.5 7.83333C39.195 7.83333 37.935 8.08792 36.7425 8.55792C35.6175 5.22875 32.1075 2.9375 28.125 2.9375ZM27 20.5625H29.25V34.2708H27V20.5625ZM20.25 24.4792H22.5V34.2708H20.25V24.4792ZM33.75 24.4792H36V34.2708H33.75V24.4792ZM13.5 39.1667V41.125C13.5 41.6444 13.7371 42.1425 14.159 42.5098C14.581 42.877 15.1533 43.0833 15.75 43.0833H40.5C41.0967 43.0833 41.669 42.877 42.091 42.5098C42.5129 42.1425 42.75 41.6444 42.75 41.125V39.1667H13.5Z" fill="black"/>
</svg>
