<svg width="55" height="47" viewBox="0 0 55 47" fill="none" xmlns="http://www.w3.org/2000/svg">
<path d="M16.25 9.79169V29.375C16.25 31.5488 14.2475 33.2917 11.75 33.2917H9.5C8.2625 33.2917 7.25 32.4104 7.25 31.3334V25.4584H2.75V31.3334C2.75 34.5842 5.765 37.2084 9.5 37.2084H11.75C16.7225 37.2084 20.75 33.7029 20.75 29.375V9.79169M52.25 26.2025L49.4825 23.7938C48.6654 23.0794 47.6942 22.5127 46.6246 22.1262C45.555 21.7397 44.4081 21.541 43.25 21.5417H38.75V25.4584H43.25C44.375 25.4584 45.5 25.85 46.2875 26.555L47.075 27.2404L44.375 28.5917C43.34 29.1009 42.1925 29.375 41 29.375H38.75C37.49 29.375 36.5 28.5134 36.5 27.4167V11.75H32V19.2113L30.605 17.86C29.075 16.3913 26.6 15.6667 24.3275 15.6667H23V19.5834H24.3275C25.7675 19.5834 27.14 20.0729 28.1525 20.9738L32 24.3029V27.4167C32 29.61 30.02 31.3334 27.5 31.3334H23V35.25H27.5C30.5825 35.25 33.125 33.8792 34.6325 31.8034C35.166 32.2826 35.8065 32.6618 36.5146 32.9177C37.2227 33.1737 37.9834 33.3009 38.75 33.2917H41C42.98 33.2917 44.915 32.8413 46.625 31.9796L52.25 29.1596V26.2025Z" fill="black"/>
</svg>
